<?xml version="1.0" encoding="iso-8859-1"?>
<!-- Generator: Adobe Illustrator 22.1.0, SVG Export Plug-In . SVG Version: 6.00 Build 0)  -->
<svg xmlns="http://www.w3.org/2000/svg" xmlns:xlink="http://www.w3.org/1999/xlink" version="1.1" id="Layer_1_1_" x="0px" y="0px" viewBox="0 0 64 64" style="enable-background:new 0 0 64 64;" xml:space="preserve" width="512" height="512">
<defs>
    <linearGradient id="grad1" x1="0%" y1="0%" x2="100%" y2="0%">
      <stop offset="0%" style="stop-color:rgba(84, 58, 183, 1);stop-opacity:1" />
      <stop offset="100%" style="stop-color:rgba(0, 172, 193, 1);stop-opacity:1" />
    </linearGradient>
  </defs>
<g>
	<path d="M52,49c0.551,0,1,0.448,1,1h2c0-1.302-0.839-2.402-2-2.816V45h-2v2.184c-1.161,0.414-2,1.514-2,2.816c0,1.654,1.346,3,3,3   c0.551,0,1,0.448,1,1s-0.449,1-1,1s-1-0.448-1-1h-2c0,1.302,0.839,2.402,2,2.816V59h2v-2.184c1.161-0.414,2-1.514,2-2.816   c0-1.654-1.346-3-3-3c-0.551,0-1-0.448-1-1S51.449,49,52,49z" fill="url(#grad1)"/>
	<path d="M52,41c-3.456,0-6.541,1.605-8.559,4.106L37,43.248V41.34c1.102-0.863,1.963-2.014,2.474-3.34H40c2.206,0,4-1.794,4-4v-7   c0-6.617-5.383-12-12-12s-12,5.383-12,12v7c0,2.206,1.794,4,4,4h0.591c0.518,1.27,1.353,2.377,2.409,3.226v2.022l-7.94,2.29   c-2.979,0.86-5.06,3.625-5.06,6.726V57h28.214c1.825,3.556,5.521,6,9.786,6c6.065,0,11-4.935,11-11S58.065,41,52,41z    M38.576,45.784l-1.978,4.615l-3.102-2.481l2.793-2.793L38.576,45.784z M32,46.586l-3-3v-1.183C29.937,42.785,30.96,43,32.034,43   h0.176c0.984,0,1.922-0.191,2.79-0.525v1.111L32,46.586z M40,36h-0.04c0.026-0.26,0.04-0.524,0.04-0.791V32c1.103,0,2,0.897,2,2   C42,35.103,41.103,36,40,36z M24,36c-1.103,0-2-0.897-2-2c0-1.103,0.897-2,2-2h0.013C24.011,32.055,24,32.107,24,32.162V35   c0,0.339,0.028,0.672,0.07,1H24z M24.468,30H24c-0.732,0-1.409,0.212-2,0.556V27c0-5.514,4.486-10,10-10s10,4.486,10,10v3.556   C41.409,30.212,40.732,30,40,30h-1h-2c-3.009,0-5.992-0.995-8.4-2.8l-0.419-0.314l-0.497,0.166   C26.206,27.544,25.066,28.637,24.468,30z M26,35v-2.838c0-1.295,0.732-2.458,1.865-3.026C30.531,30.986,33.752,32,37,32h1v3.209   C38,38.402,35.403,41,32.21,41h-0.176C28.707,41,26,38.309,26,35z M27.71,45.124l2.793,2.793l-3.102,2.481l-1.978-4.615   L27.71,45.124z M41,52c0,1.041,0.155,2.045,0.426,3H22v-4h-2v4h-4v-2.736c0-2.214,1.486-4.189,3.614-4.804l3.873-1.118l3.111,7.259   L32,49.281l5.401,4.321l3.111-7.259l1.773,0.511C41.467,48.391,41,50.141,41,52z M52,61c-4.962,0-9-4.037-9-9s4.038-9,9-9   s9,4.037,9,9S56.962,61,52,61z" fill="url(#grad1)"/>
	<path d="M60,9H48c-1.654,0-3,1.346-3,3v8c0,1.654,1.346,3,3,3h1v4.869L56.303,23H60c1.654,0,3-1.346,3-3v-8   C63,10.346,61.654,9,60,9z M61,20c0,0.551-0.449,1-1,1h-4.303L51,24.131V21h-3c-0.551,0-1-0.449-1-1v-8c0-0.551,0.449-1,1-1h12   c0.551,0,1,0.449,1,1V20z" fill="url(#grad1)"/>
	<polygon points="54,14.586 51.707,12.293 50.293,13.707 53,16.414 53,19 55,19 55,16.414 57.707,13.707 56.293,12.293  " fill="url(#grad1)"/>
	<path d="M15,23h1c1.654,0,3-1.346,3-3v-8c0-1.654-1.346-3-3-3H4c-1.654,0-3,1.346-3,3v8c0,1.654,1.346,3,3,3h3.697L15,27.869V23z    M13,24.131L8.303,21H4c-0.551,0-1-0.449-1-1v-8c0-0.551,0.449-1,1-1h12c0.551,0,1,0.449,1,1v8c0,0.551-0.449,1-1,1h-3V24.131z" fill="url(#grad1)"/>
	<polygon points="11,15.764 9.618,13 7,13 7,19 9,19 9,16.236 10.382,19 13,19 13,13 11,13  " fill="url(#grad1)"/>
	<path d="M31,4c0-0.551,0.449-1,1-1s1,0.449,1,1v0.171c0,0.267-0.104,0.519-0.293,0.708L31,6.586V9h2V7.414l1.121-1.121   C34.688,5.727,35,4.973,35,4.171V4c0-1.654-1.346-3-3-3s-3,1.346-3,3v1h2V4z" fill="url(#grad1)"/>
	<rect x="31" y="11" width="2" height="2" fill="url(#grad1)"/>
</g>
</svg>
