<svg id="Capa_1" enable-background="new 0 0 512 512" height="512" viewBox="0 0 512 512" width="512" xmlns="http://www.w3.org/2000/svg"><g><g>
<defs>
    <linearGradient id="grad1" x1="0%" y1="0%" x2="100%" y2="0%">
      <stop offset="0%" style="stop-color:rgba(84, 58, 183, 1);stop-opacity:1" />
      <stop offset="100%" style="stop-color:rgba(0, 172, 193, 1);stop-opacity:1" />
    </linearGradient>
  </defs>
<path d="m494.24 19.649h-476.48c-9.793 0-17.76 7.967-17.76 17.76v301.52c0 9.793 7.967 17.76 17.76 17.76h241.987c4.143 0 7.5-3.358 7.5-7.5s-3.357-7.5-7.5-7.5h-241.987c-1.521 0-2.76-1.238-2.76-2.76v-301.52c0-1.522 1.238-2.76 2.76-2.76h476.48c1.521 0 2.76 1.238 2.76 2.76v301.52c0 1.522-1.238 2.76-2.76 2.76h-17.825c2.12-8.066 3.224-16.419 3.224-24.86v-222.74c0-4.761-1.955-9.397-5.365-12.722l-24.976-24.335c-3.344-3.239-7.74-5.023-12.379-5.023h-330.098c-4.143 0-7.5 3.358-7.5 7.5s3.357 7.5 7.5 7.5h330.099c.712 0 1.419.291 1.926.781l24.959 24.319c.53.517.835 1.239.835 1.979v170.719c-17.345-27.546-48.023-45.89-82.909-45.89-51.465 0-93.782 39.913-97.625 90.41h-206.736c-.753 0-1.484-.32-2.009-.879l-27.258-29.078c-.479-.511-.742-1.183-.742-1.892v-207.709c0-1.522 1.238-2.76 2.76-2.76h20.514c4.143 0 7.5-3.358 7.5-7.5s-3.357-7.5-7.5-7.5h-20.515c-9.793 0-17.76 7.967-17.76 17.76v207.71c0 4.533 1.703 8.847 4.798 12.149l27.26 29.08c3.348 3.572 8.068 5.621 12.952 5.621h206.759c1.506 19.703 8.905 38.443 21.304 53.834l-35.213 69.495c-2.208 4.356-2.031 9.459.473 13.651 2.505 4.192 6.917 6.768 11.804 6.887l22.927.56 14.014 18.148c5.935 8.196 19.538 6.893 23.823-2.236l35.462-69.992c3.084.118 6.213.055 9.286-.143l35.543 70.136c4.286 9.127 17.871 10.428 23.816 2.24l14.009-18.154 22.937-.56h.002c4.885-.12 9.298-2.695 11.803-6.888 2.504-4.191 2.681-9.294.474-13.649l-36.539-72.105c4.407-5.874 8.111-12.208 11.077-18.865h23.111c9.793 0 17.76-7.967 17.76-17.76v-301.519c-.002-9.793-7.969-17.76-17.762-17.76zm-163.747 457.03-13.447-17.416c-2.614-3.383-6.564-5.385-10.844-5.492l-21.991-.537 32.181-63.512c13.143 11.822 29.123 19.794 46.42 23.167zm44.358-77.225c-21.181-1.731-40.674-11.438-54.896-27.342-13.629-15.196-21.134-34.829-21.134-55.283 0-45.717 37.193-82.91 82.91-82.91 45.716 0 82.909 37.193 82.909 82.91 0 19.365-6.818 38.203-19.197 53.044-.002.002-.004.004-.006.007-13.665 16.411-32.811 26.81-53.908 29.28-.005 0-.009.002-.013.002-.003 0-.006 0-.008 0-5.45.654-11.272.749-16.657.292zm85.753 54.317c-4.259.106-8.207 2.1-10.852 5.496l-13.436 17.411-32.64-64.409c17.19-3.919 32.915-12.4 45.682-24.633l33.241 65.598z" fill="url(#grad1)" />
<path d="m290.632 103.376c4.143 0 7.5-3.358 7.5-7.5s-3.357-7.5-7.5-7.5h-69.264c-4.143 0-7.5 3.358-7.5 7.5s3.357 7.5 7.5 7.5z" fill="url(#grad1)"/>
<path d="m180.742 133.263c0 4.142 3.357 7.5 7.5 7.5h135.516c4.143 0 7.5-3.358 7.5-7.5s-3.357-7.5-7.5-7.5h-135.516c-4.142 0-7.5 3.358-7.5 7.5z" fill="url(#grad1)"/>
<path d="m137.789 175.591v23.438c0 8.228 6.694 14.921 14.922 14.921h207.949c8.228 0 14.922-6.694 14.922-14.921v-23.438c0-8.228-6.694-14.921-14.922-14.921h-207.949c-8.228 0-14.922 6.694-14.922 14.921zm15 .079h207.793v23.281h-207.793z" fill="url(#grad1)"/>
<path d="m95.089 281.229c-1.434 3.884.554 8.193 4.438 9.628 3.882 1.434 8.197-.55 9.634-4.434.043-.116 4.394-11.785 11.275-22.923 7.724-12.497 15.628-19.336 21.637-18.771 2.345.22 3.273 1.166 3.929 2.155 4.261 6.435 1.474 24.145-1.863 34.66-1.073 3.362.344 7.015 3.402 8.777 3.057 1.762 6.932 1.151 9.302-1.462 7.756-8.555 22.354-20.68 30.52-20.851.308-.006.492.015.601.035 1.273 1.848.944 10.026-1.303 17.341-.999 3.219.287 6.695 3.121 8.518 2.825 1.819 6.546 1.523 9.065-.726.751-.67 18.724-16.356 47.566-11.411 4.084.697 7.96-2.043 8.659-6.126s-2.044-7.959-6.126-8.659c-19.298-3.305-34.812.917-45.256 5.733-.033-4.958-.978-10.017-3.822-13.794-2.952-3.92-7.495-6.002-12.82-5.907-6.959.146-15.062 3.604-24.134 10.29.864-10.667-.608-18.953-4.396-24.683-3.417-5.168-8.617-8.219-15.041-8.823-27.662-2.589-46.346 45.895-48.388 51.433z" fill="url(#grad1)"/>
<circle cx="35.127" cy="319.256" r="7.431" fill="url(#grad1)"/>
<path d="m482.002 55.508c0-4.104-3.327-7.431-7.431-7.431s-7.432 3.327-7.432 7.431 3.327 7.432 7.432 7.432c4.104 0 7.431-3.327 7.431-7.432z" fill="url(#grad1)"/>
<path d="m104.125 179.811h-21.582c-4.143 0-7.5 3.358-7.5 7.5s3.357 7.5 7.5 7.5h21.582c4.143 0 7.5-3.358 7.5-7.5s-3.357-7.5-7.5-7.5z" fill="url(#grad1)"/>
<path d="m430.719 194.811c4.143 0 7.5-3.358 7.5-7.5s-3.357-7.5-7.5-7.5h-21.582c-4.143 0-7.5 3.358-7.5 7.5s3.357 7.5 7.5 7.5z" fill="url(#grad1)"/>
<path d="m445.492 316.825c0-35.039-28.412-63.56-63.407-63.754-.017-.001-.034-.001-.051-.001-.102 0-.203-.008-.305-.008-35.159 0-63.764 28.604-63.764 63.763 0 35.154 28.596 63.754 63.748 63.763.004 0 .007.001.011.001h.005.005c.004 0 .008-.001.012-.001 35.152-.01 63.746-28.61 63.746-63.763zm-63.592 43.306c-12.893-20.654-16.423-42.028-10.477-63.667 2.754-10.021 7.083-18.131 10.527-23.524 9.741 14.186 26.086 47.651-.05 87.191zm-48.934-43.306c0-21.315 13.753-39.468 32.848-46.082-3.117 5.683-6.326 12.796-8.665 21.068-4.915 17.386-6.659 42.876 9.09 71.24-19.315-6.49-33.273-24.753-33.273-46.226zm64.908 46.004c16.48-28.299 14.611-53.743 9.412-71.127-2.426-8.109-5.732-15.102-8.965-20.73 18.744 6.804 32.171 24.788 32.171 45.852 0 21.231-13.643 39.326-32.618 46.005z" fill="url(#grad1)"/></g></g></svg>